<svg width="40" height="40" viewBox="0 0 40 40" fill="none" xmlns="http://www.w3.org/2000/svg">
  <rect width="40" height="40" rx="11" fill="url(#bg)"/>
  <rect x="0.5" y="0.5" width="39" height="39" rx="10.5" stroke="white" stroke-opacity="0.42"/>
  <path d="M11 13.25C11 11.46 14.58 10 19 10C23.42 10 27 11.46 27 13.25C27 15.04 23.42 16.5 19 16.5C14.58 16.5 11 15.04 11 13.25Z" fill="white" fill-opacity="0.92"/>
  <path d="M11 13.35V18.35C11 20.14 14.58 21.6 19 21.6C23.42 21.6 27 20.14 27 18.35V13.35C27 15.14 23.42 16.6 19 16.6C14.58 16.6 11 15.14 11 13.35Z" fill="white" fill-opacity="0.72"/>
  <path d="M11 20.35V25.25C11 27.04 14.58 28.5 19 28.5C23.42 28.5 27 27.04 27 25.25V20.35C27 22.14 23.42 23.6 19 23.6C14.58 23.6 11 22.14 11 20.35Z" fill="white" fill-opacity="0.42"/>
  <path d="M25.2 13.6C27.5 14.52 29.2 16.52 29.2 19C29.2 21.12 28 22.84 26.28 23.92" stroke="#E9FFFB" stroke-width="2" stroke-linecap="round"/>
  <path d="M26.72 19.2L29.22 23.9L31.55 19.1" stroke="#E9FFFB" stroke-width="2" stroke-linecap="round" stroke-linejoin="round"/>
  <path d="M13.55 26.25C15.05 28.02 17.2 29 19.8 29C22.15 29 24.15 28.22 25.68 26.82" stroke="#D9F8FF" stroke-width="1.6" stroke-linecap="round"/>
  <circle cx="30" cy="10" r="2.2" fill="#B9FFF3"/>
  <defs>
    <linearGradient id="bg" x1="6" y1="5" x2="34" y2="35" gradientUnits="userSpaceOnUse">
      <stop stop-color="#5EEAD4"/>
      <stop offset="0.48" stop-color="#0A84FF"/>
      <stop offset="1" stop-color="#2457C5"/>
    </linearGradient>
  </defs>
</svg>
